<svg width="20" height="20" viewBox="0 0 20 20" fill="none" xmlns="http://www.w3.org/2000/svg">
  <g clip-path="url(#clip0_601_815)">
    <path d="M16.3129 19.2C15.0879 20.2556 13.7504 20.0889 12.4629 19.5889C11.1004 19.0778 9.85045 19.0556 8.41295 19.5889C6.61295 20.2778 5.66295 20.0778 4.58795 19.2C-1.51205 13.6111 -0.61205 5.1 6.31295 4.78889C8.00045 4.86667 9.17545 5.61111 10.1629 5.67778C11.6379 5.41111 13.0504 4.64444 14.6254 4.74444C16.5129 4.87778 17.9379 5.54444 18.8754 6.74444C14.9754 8.82222 15.9004 13.3889 19.4754 14.6667C18.7629 16.3333 17.8379 17.9889 16.3004 19.2111L16.3129 19.2ZM10.0379 4.72222C9.85045 2.24444 12.1129 0.2 14.7129 0C15.0754 2.86667 11.7879 5 10.0379 4.72222Z" fill="black" style="fill:black;fill-opacity:1;"/>
  </g>
  <defs>
    <clipPath id="clip0_601_815">
      <rect width="20" height="20" fill="white" style="fill:white;fill-opacity:1;"/>
    </clipPath>
  </defs>
</svg>
