<svg width="20" height="20" viewBox="0 0 20 20" fill="none" xmlns="http://www.w3.org/2000/svg">
<g clip-path="url(#clip0_601_817)">
<path d="M7.60244 19.0259V11.7519H4.81844C4.67389 11.7519 4.53527 11.6945 4.43306 11.5923C4.33086 11.4901 4.27344 11.3515 4.27344 11.2069V8.32995C4.27344 8.18541 4.33086 8.04678 4.43306 7.94458C4.53527 7.84237 4.67389 7.78495 4.81844 7.78495H7.59144V4.99995C7.5251 4.3395 7.60417 3.67254 7.82309 3.04591C8.042 2.41927 8.39546 1.84817 8.85863 1.37271C9.3218 0.897242 9.88345 0.528949 10.5041 0.293696C11.1248 0.0584433 11.7895 -0.0380653 12.4514 0.0109495H14.7714C14.9174 0.0106634 15.0575 0.0677509 15.1617 0.169896C15.2659 0.272041 15.3258 0.411056 15.3284 0.556949V2.99295C15.3253 3.13859 15.2652 3.2772 15.1611 3.37907C15.057 3.48095 14.9171 3.53798 14.7714 3.53795H13.3214C11.7554 3.53795 11.4544 4.27995 11.4544 5.37095V7.78395H15.1774C15.2548 7.78139 15.3318 7.79571 15.4031 7.82592C15.4744 7.85614 15.5382 7.90152 15.5902 7.95891C15.6422 8.0163 15.681 8.08432 15.704 8.15824C15.727 8.23216 15.7336 8.31021 15.7234 8.38695L15.3864 11.2749C15.3696 11.4072 15.3048 11.5287 15.2043 11.6164C15.1039 11.7042 14.9748 11.752 14.8414 11.7509H11.4774V19.025C11.4793 19.1535 11.4554 19.281 11.4071 19.4001C11.3587 19.5192 11.2869 19.6274 11.196 19.7182C11.1051 19.8091 10.9968 19.8807 10.8777 19.9289C10.7586 19.9772 10.6309 20.001 10.5024 19.999H8.56544C8.43793 19.9994 8.31162 19.9744 8.19387 19.9254C8.07613 19.8765 7.96932 19.8046 7.87967 19.7139C7.79002 19.6232 7.71933 19.5156 7.67173 19.3973C7.62413 19.279 7.60058 19.1534 7.60244 19.0259Z" fill="#3C77F7" style="fill:#3C77F7;fill:color(display-p3 0.2348 0.4671 0.9683);fill-opacity:1;"/>
</g>
<defs>
<clipPath id="clip0_601_817">
<rect width="20" height="20" fill="white" style="fill:white;fill-opacity:1;"/>
</clipPath>
</defs>
</svg>
